<?xml version="1.0" standalone="no"?>
<!DOCTYPE svg PUBLIC "-//W3C//DTD SVG 20010904//EN"
 "http://www.w3.org/TR/2001/REC-SVG-20010904/DTD/svg10.dtd">
<svg version="1.0" xmlns="http://www.w3.org/2000/svg"
 width="256.000000pt" height="256.000000pt" viewBox="0 0 256.000000 256.000000"
 preserveAspectRatio="xMidYMid meet">
<metadata>
Created by potrace 1.15, written by Peter Selinger 2001-2017
</metadata>
<g transform="translate(0.000000,256.000000) scale(0.100000,-0.100000)"
fill="#000000" stroke="none">
<path d="M0 1280 l0 -1280 1280 0 1280 0 -1 438 c-1 272 -4 421 -10 394 -17
-88 -64 -138 -144 -153 -109 -20 -203 22 -235 106 -21 54 -31 202 -21 307 12
122 38 175 104 207 92 45 228 16 270 -56 10 -18 21 -57 24 -88 l6 -55 -65 0
-65 0 -6 46 c-8 74 -55 102 -102 61 -25 -21 -29 -34 -38 -120 -7 -66 -7 -123
0 -186 12 -105 28 -131 79 -131 40 0 53 19 69 100 l12 55 61 0 62 0 0 818 0
817 -1280 0 -1280 0 0 -1280z m1578 -232 c-3 -298 -8 -315 -82 -352 -56 -27
-166 -27 -203 0 -45 34 -64 67 -70 127 l-6 57 62 0 61 0 0 -37 c1 -50 21 -75
56 -71 49 5 54 29 54 296 l0 242 66 0 65 0 -3 -262z m296 64 c38 -108 73 -201
78 -206 4 -6 8 83 8 197 l0 207 55 0 55 0 0 -315 0 -316 -71 3 -72 3 -71 202
c-39 111 -73 204 -76 206 -3 3 -6 -88 -7 -201 l-2 -207 -56 -3 -55 -3 0 316 0
315 73 0 72 0 69 -198z"/>
</g>
</svg>
